<svg width="400" height="200" viewBox="0 0 400 200" fill="none" xmlns="http://www.w3.org/2000/svg">
<rect width="400" height="200" fill="#1E1E1E"/>
<rect width="400" height="200" fill="white"/>
<path d="M72.4014 122.8L71.7514 121.65C73.0847 120.317 73.9514 118.983 74.3514 117.65C74.7514 116.317 74.9514 115.133 74.9514 114.1C74.9514 112.467 74.6347 110.967 74.0014 109.6C73.4014 108.2 72.5847 106.883 71.5514 105.65C70.5514 104.417 69.4847 103.25 68.3514 102.15C67.2514 101.05 66.2014 99.9667 65.2014 98.9C64.2014 97.8 63.3847 96.6833 62.7514 95.55C62.118 94.4167 61.8014 93.2333 61.8014 92C61.8014 90.7667 62.0847 89.7167 62.6514 88.85C63.2514 87.95 64.018 87.2667 64.9514 86.8C65.918 86.3333 66.9847 86.1 68.1514 86.1C69.3514 86.1 70.4847 86.3833 71.5514 86.95C72.6514 87.4833 73.618 88.3167 74.4514 89.45L73.5014 90.9C72.7014 89.7667 71.818 88.95 70.8514 88.45C69.918 87.9167 68.9514 87.65 67.9514 87.65C66.718 87.65 65.668 88.0167 64.8014 88.75C63.968 89.4833 63.5514 90.4833 63.5514 91.75C63.5514 92.7833 63.868 93.8167 64.5014 94.85C65.168 95.85 66.0014 96.8833 67.0014 97.95C68.0347 98.9833 69.1014 100.067 70.2014 101.2C71.3347 102.3 72.4014 103.483 73.4014 104.75C74.4347 106.017 75.268 107.383 75.9014 108.85C76.5347 110.283 76.8514 111.867 76.8514 113.6C76.8514 115.167 76.5014 116.717 75.8014 118.25C75.1347 119.783 74.0014 121.3 72.4014 122.8ZM66.6514 128.8C65.4514 128.8 64.3014 128.517 63.2014 127.95C62.1347 127.417 61.168 126.567 60.3014 125.4L61.3014 124C62.1014 125.1 62.9847 125.9 63.9514 126.4C64.918 126.933 65.8847 127.2 66.8514 127.2C68.0847 127.2 69.118 126.833 69.9514 126.1C70.818 125.367 71.2514 124.383 71.2514 123.15C71.2514 122.083 70.918 121.05 70.2514 120.05C69.618 119.05 68.7847 118.033 67.7514 117C66.7514 115.933 65.6847 114.85 64.5514 113.75C63.4514 112.617 62.3847 111.417 61.3514 110.15C60.3514 108.883 59.518 107.517 58.8514 106.05C58.218 104.583 57.9014 103 57.9014 101.3C57.9014 99.7 58.2514 98.15 58.9514 96.65C59.6514 95.1167 60.8014 93.6 62.4014 92.1L63.0514 93.2C61.718 94.5 60.8514 95.8333 60.4514 97.2C60.0514 98.5667 59.8514 99.7667 59.8514 100.8C59.8514 102.433 60.1514 103.95 60.7514 105.35C61.3847 106.717 62.2014 108.017 63.2014 109.25C64.2347 110.45 65.3014 111.617 66.4014 112.75C67.5347 113.85 68.6014 114.95 69.6014 116.05C70.6014 117.117 71.418 118.2 72.0514 119.3C72.6847 120.433 73.0014 121.633 73.0014 122.9C73.0014 124.1 72.7014 125.133 72.1014 126C71.5347 126.9 70.768 127.583 69.8014 128.05C68.868 128.55 67.818 128.8 66.6514 128.8ZM97.9643 119V86.1H107.764C110.598 86.1 113.148 86.4833 115.414 87.25C117.681 88.0167 119.614 89.1167 121.214 90.55C122.848 91.9833 124.098 93.7 124.964 95.7C125.831 97.6667 126.264 99.8667 126.264 102.3C126.264 104.467 125.898 106.55 125.164 108.55C124.431 110.55 123.314 112.333 121.814 113.9C120.314 115.467 118.414 116.717 116.114 117.65C113.848 118.55 111.164 119 108.064 119H97.9643ZM100.164 117.3H108.214C110.914 117.3 113.248 116.917 115.214 116.15C117.214 115.383 118.848 114.317 120.114 112.95C121.414 111.583 122.364 110.017 122.964 108.25C123.598 106.483 123.914 104.6 123.914 102.6C123.914 99.8 123.281 97.2833 122.014 95.05C120.781 92.8167 118.948 91.05 116.514 89.75C114.081 88.45 111.064 87.8 107.464 87.8H100.164V117.3ZM141.674 119.3C139.74 119.3 138.04 118.9 136.574 118.1C135.107 117.267 133.957 116.117 133.124 114.65C132.29 113.183 131.874 111.45 131.874 109.45C131.874 107.183 132.324 105.217 133.224 103.55C134.157 101.85 135.407 100.533 136.974 99.6C138.574 98.6667 140.374 98.2 142.374 98.2C144.707 98.2 146.44 98.85 147.574 100.15C148.707 101.417 149.274 103.183 149.274 105.45C149.274 105.65 149.274 105.85 149.274 106.05C149.274 106.25 149.257 106.45 149.224 106.65H147.424V105.45C147.424 103.517 146.99 102.083 146.124 101.15C145.29 100.217 144.007 99.75 142.274 99.75C140.64 99.75 139.19 100.15 137.924 100.95C136.657 101.717 135.657 102.8 134.924 104.2C134.224 105.6 133.874 107.267 133.874 109.2C133.874 111.767 134.624 113.817 136.124 115.35C137.657 116.883 139.624 117.65 142.024 117.65C143.19 117.65 144.307 117.433 145.374 117C146.44 116.567 147.474 115.883 148.474 114.95L149.374 116.1C148.507 116.9 147.64 117.533 146.774 118C145.94 118.467 145.107 118.8 144.274 119C143.44 119.2 142.574 119.3 141.674 119.3ZM133.324 106.65L133.624 105.2H148.874V106.65H133.324ZM156.631 119V83.6L158.681 83.3V119H156.631ZM168.751 119V98.65L170.851 98.3V119H168.751ZM169.801 91.55C169.301 91.55 168.884 91.3833 168.551 91.05C168.218 90.7167 168.051 90.3167 168.051 89.85C168.051 89.35 168.218 88.95 168.551 88.65C168.884 88.3167 169.301 88.15 169.801 88.15C170.301 88.15 170.718 88.3167 171.051 88.65C171.384 88.95 171.551 89.35 171.551 89.85C171.551 90.3167 171.384 90.7167 171.051 91.05C170.718 91.3833 170.301 91.55 169.801 91.55ZM187.149 119V95.9H189.249V119H187.149ZM177.299 97.6V95.9H199.149V97.6H177.299ZM212.816 119.3C210.883 119.3 209.183 118.9 207.716 118.1C206.25 117.267 205.1 116.117 204.266 114.65C203.433 113.183 203.016 111.45 203.016 109.45C203.016 107.183 203.466 105.217 204.366 103.55C205.3 101.85 206.55 100.533 208.116 99.6C209.716 98.6667 211.516 98.2 213.516 98.2C215.85 98.2 217.583 98.85 218.716 100.15C219.85 101.417 220.416 103.183 220.416 105.45C220.416 105.65 220.416 105.85 220.416 106.05C220.416 106.25 220.4 106.45 220.366 106.65H218.566V105.45C218.566 103.517 218.133 102.083 217.266 101.15C216.433 100.217 215.15 99.75 213.416 99.75C211.783 99.75 210.333 100.15 209.066 100.95C207.8 101.717 206.8 102.8 206.066 104.2C205.366 105.6 205.016 107.267 205.016 109.2C205.016 111.767 205.766 113.817 207.266 115.35C208.8 116.883 210.766 117.65 213.166 117.65C214.333 117.65 215.45 117.433 216.516 117C217.583 116.567 218.616 115.883 219.616 114.95L220.516 116.1C219.65 116.9 218.783 117.533 217.916 118C217.083 118.467 216.25 118.8 215.416 119C214.583 119.2 213.716 119.3 212.816 119.3ZM204.466 106.65L204.766 105.2H220.016V106.65H204.466ZM224.424 119L232.824 108.45L225.024 98.5H227.624L234.124 107L240.624 98.5H242.924L235.124 108.3L243.474 119H240.874L233.824 109.7L226.774 119H224.424ZM256.647 119.35C255.481 119.35 254.447 119.117 253.547 118.65C252.681 118.15 252.014 117.45 251.547 116.55C251.081 115.65 250.847 114.567 250.847 113.3V99.5L251.447 94.1L252.947 93.9V113C252.947 114.5 253.314 115.667 254.047 116.5C254.781 117.333 255.814 117.75 257.147 117.75C257.947 117.75 258.747 117.6 259.547 117.3C260.347 116.967 261.131 116.467 261.897 115.8L262.597 116.9C261.664 117.767 260.681 118.4 259.647 118.8C258.647 119.167 257.647 119.35 256.647 119.35ZM261.597 100.7H246.397L246.497 99.15L261.697 99L261.597 100.7ZM276.294 119.3C274.327 119.3 272.577 118.85 271.044 117.95C269.511 117.05 268.294 115.817 267.394 114.25C266.494 112.683 266.044 110.9 266.044 108.9C266.044 106.833 266.511 105 267.444 103.4C268.411 101.767 269.711 100.5 271.344 99.6C272.977 98.6667 274.827 98.2 276.894 98.2C278.861 98.2 280.611 98.65 282.144 99.55C283.677 100.417 284.877 101.633 285.744 103.2C286.644 104.733 287.094 106.5 287.094 108.5C287.094 110.567 286.627 112.417 285.694 114.05C284.761 115.683 283.477 116.967 281.844 117.9C280.244 118.833 278.394 119.3 276.294 119.3ZM276.544 117.8C278.244 117.8 279.711 117.4 280.944 116.6C282.211 115.767 283.177 114.667 283.844 113.3C284.544 111.933 284.894 110.4 284.894 108.7C284.894 106.9 284.527 105.333 283.794 104C283.094 102.633 282.127 101.583 280.894 100.85C279.661 100.083 278.244 99.7 276.644 99.7C275.011 99.7 273.544 100.1 272.244 100.9C270.977 101.667 269.994 102.733 269.294 104.1C268.594 105.433 268.244 106.967 268.244 108.7C268.244 110.5 268.611 112.083 269.344 113.45C270.077 114.817 271.061 115.883 272.294 116.65C273.561 117.417 274.977 117.8 276.544 117.8ZM298.281 119.3C297.348 119.3 296.448 119.2 295.581 119C294.714 118.833 293.931 118.583 293.231 118.25C292.531 117.883 291.931 117.517 291.431 117.15L292.081 115.4C292.814 116.133 293.764 116.733 294.931 117.2C296.098 117.633 297.264 117.85 298.431 117.85C299.964 117.85 301.214 117.45 302.181 116.65C303.148 115.817 303.631 114.833 303.631 113.7C303.631 112.767 303.364 112.017 302.831 111.45C302.298 110.883 301.614 110.417 300.781 110.05C299.948 109.683 299.064 109.333 298.131 109C297.198 108.667 296.298 108.283 295.431 107.85C294.598 107.417 293.914 106.85 293.381 106.15C292.848 105.45 292.581 104.567 292.581 103.5C292.581 102.333 292.881 101.367 293.481 100.6C294.081 99.8 294.881 99.2 295.881 98.8C296.881 98.3667 297.964 98.15 299.131 98.15C300.131 98.15 301.114 98.2833 302.081 98.55C303.081 98.8167 303.931 99.2 304.631 99.7L303.981 101.4C303.381 100.8 302.614 100.35 301.681 100.05C300.781 99.75 299.914 99.6 299.081 99.6C297.714 99.6 296.598 99.9333 295.731 100.6C294.898 101.267 294.481 102.117 294.481 103.15C294.481 104.017 294.748 104.733 295.281 105.3C295.848 105.833 296.548 106.283 297.381 106.65C298.214 106.983 299.098 107.333 300.031 107.7C300.998 108.033 301.898 108.417 302.731 108.85C303.564 109.283 304.248 109.867 304.781 110.6C305.314 111.3 305.581 112.217 305.581 113.35C305.581 114.183 305.398 114.967 305.031 115.7C304.698 116.433 304.214 117.067 303.581 117.6C302.948 118.133 302.181 118.55 301.281 118.85C300.381 119.15 299.381 119.3 298.281 119.3ZM337.44 122.8L336.79 121.65C338.124 120.317 338.99 118.983 339.39 117.65C339.79 116.317 339.99 115.133 339.99 114.1C339.99 112.467 339.674 110.967 339.04 109.6C338.44 108.2 337.624 106.883 336.59 105.65C335.59 104.417 334.524 103.25 333.39 102.15C332.29 101.05 331.24 99.9667 330.24 98.9C329.24 97.8 328.424 96.6833 327.79 95.55C327.157 94.4167 326.84 93.2333 326.84 92C326.84 90.7667 327.124 89.7167 327.69 88.85C328.29 87.95 329.057 87.2667 329.99 86.8C330.957 86.3333 332.024 86.1 333.19 86.1C334.39 86.1 335.524 86.3833 336.59 86.95C337.69 87.4833 338.657 88.3167 339.49 89.45L338.54 90.9C337.74 89.7667 336.857 88.95 335.89 88.45C334.957 87.9167 333.99 87.65 332.99 87.65C331.757 87.65 330.707 88.0167 329.84 88.75C329.007 89.4833 328.59 90.4833 328.59 91.75C328.59 92.7833 328.907 93.8167 329.54 94.85C330.207 95.85 331.04 96.8833 332.04 97.95C333.074 98.9833 334.14 100.067 335.24 101.2C336.374 102.3 337.44 103.483 338.44 104.75C339.474 106.017 340.307 107.383 340.94 108.85C341.574 110.283 341.89 111.867 341.89 113.6C341.89 115.167 341.54 116.717 340.84 118.25C340.174 119.783 339.04 121.3 337.44 122.8ZM331.69 128.8C330.49 128.8 329.34 128.517 328.24 127.95C327.174 127.417 326.207 126.567 325.34 125.4L326.34 124C327.14 125.1 328.024 125.9 328.99 126.4C329.957 126.933 330.924 127.2 331.89 127.2C333.124 127.2 334.157 126.833 334.99 126.1C335.857 125.367 336.29 124.383 336.29 123.15C336.29 122.083 335.957 121.05 335.29 120.05C334.657 119.05 333.824 118.033 332.79 117C331.79 115.933 330.724 114.85 329.59 113.75C328.49 112.617 327.424 111.417 326.39 110.15C325.39 108.883 324.557 107.517 323.89 106.05C323.257 104.583 322.94 103 322.94 101.3C322.94 99.7 323.29 98.15 323.99 96.65C324.69 95.1167 325.84 93.6 327.44 92.1L328.09 93.2C326.757 94.5 325.89 95.8333 325.49 97.2C325.09 98.5667 324.89 99.7667 324.89 100.8C324.89 102.433 325.19 103.95 325.79 105.35C326.424 106.717 327.24 108.017 328.24 109.25C329.274 110.45 330.34 111.617 331.44 112.75C332.574 113.85 333.64 114.95 334.64 116.05C335.64 117.117 336.457 118.2 337.09 119.3C337.724 120.433 338.04 121.633 338.04 122.9C338.04 124.1 337.74 125.133 337.14 126C336.574 126.9 335.807 127.583 334.84 128.05C333.907 128.55 332.857 128.8 331.69 128.8Z" fill="#292929"/>
</svg>
